<?xml version="1.0" encoding="UTF-8" standalone="no"?>
<svg
   xmlns:dc="http://purl.org/dc/elements/1.1/"
   xmlns:cc="http://creativecommons.org/ns#"
   xmlns:rdf="http://www.w3.org/1999/02/22-rdf-syntax-ns#"
   xmlns:svg="http://www.w3.org/2000/svg"
   xmlns="http://www.w3.org/2000/svg"
   xmlns:sodipodi="http://sodipodi.sourceforge.net/DTD/sodipodi-0.dtd"
   xmlns:inkscape="http://www.inkscape.org/namespaces/inkscape"
   width="120mm"
   height="120mm"
   viewBox="-60 -60 120 120"
   sodipodi:docname="logo.svg"
   version="1.1"
   id="svg69"
   inkscape:version="1.0.2 (e86c870879, 2021-01-15)"
   inkscape:export-filename="/home/debian/Desktop/front/social-net/src/assets/logo.png"
   inkscape:export-xdpi="96"
   inkscape:export-ydpi="96">
  <defs
     id="defs71">
    <inkscape:perspective
       sodipodi:type="inkscape:persp3d"
       inkscape:vp_x="0 : 60 : 1"
       inkscape:vp_y="0 : 1000 : 0"
       inkscape:vp_z="120 : 60 : 1"
       inkscape:persp3d-origin="60 : 40 : 1"
       id="perspective85" />
  </defs>
  <sodipodi:namedview
     pagecolor="#ffffff"
     bordercolor="#666666"
     borderopacity="1.0"
     inkscape:pageopacity="0.0"
     inkscape:pageshadow="2"
     inkscape:zoom="1"
     inkscape:cx="209.30222"
     inkscape:cy="226.77165"
     inkscape:document-units="mm"
     inkscape:current-layer="Template"
     showgrid="false"
     units="mm"
     showguides="true"
     inkscape:guide-bbox="true"
     inkscape:snap-global="true"
     inkscape:snap-bbox="true"
     inkscape:snap-bbox-midpoints="true"
     inkscape:window-width="1600"
     inkscape:window-height="849"
     inkscape:window-x="0"
     inkscape:window-y="27"
     inkscape:window-maximized="1"
     inkscape:bbox-paths="true"
     inkscape:bbox-nodes="true"
     inkscape:snap-bbox-edge-midpoints="true"
     inkscape:snap-grids="true"
     id="namedview59"
     inkscape:document-rotation="0">
    <sodipodi:guide
       orientation="1,0"
       position="226.771653543,226.771653543"
       id="guide2827" />
    <sodipodi:guide
       orientation="0,1"
       position="226.771653543,226.771653543"
       id="guide2829" />
    <inkscape:grid
       type="xygrid"
       id="grid3072"
       empspacing="10"
       visible="true"
       enabled="true"
       snapvisiblegridlinesonly="true"
       units="mm"
       dotted="false"
       spacingx="0.1mm"
       spacingy="0.1mm" />
  </sodipodi:namedview>
  <metadata
     id="metadata2822">
    <rdf:RDF>
      <cc:Work
         rdf:about="">
        <dc:format>image/svg+xml</dc:format>
        <dc:type
           rdf:resource="http://purl.org/dc/dcmitype/StillImage" />
        <dc:title />
      </cc:Work>
    </rdf:RDF>
  </metadata>
  <g
     inkscape:label="Layer 1"
     inkscape:groupmode="layer"
     id="Template"
     style="fill:none;stroke:black;stroke-width:0.05">
    <g
       id="g7"
       transform="matrix(0.3905503,0,0,0.37515448,-58.979267,-52.242897)"
       style="stroke-width:0.0146548;fill:#ffffff">
      <path
         d="m 0,64 c -1,2 6,38 32,52 18,11 59,27 78,34 -13,-2 -58,-13 -105,-30 -1,1 7,35 32,41 17,3 54,8 74,10 -11,2 -52,6 -82,4 0,2 11,25 30,25 15,0 52,-7 66,-9 -9,3 -55,21 -79,25 0,0 10,18 25,12 12,-3 49,-19 60,-23 -7,6 -38,23 -64,36 0,0 11,12 23,5 6,-2 16,-9 25,-15 24,-17 19,-4 36,42 16,-46 11,-59 36,-42 9,6 19,13 25,15 12,7 23,-5 23,-5 -26,-13 -57,-30 -64,-36 11,4 48,20 60,23 14,6 24,-12 24,-12 -23,-4 -69,-22 -78,-25 14,2 51,9 65,9 19,0 30,-23 30,-25 -30,2 -70,-2 -81,-4 20,-2 56,-7 73,-10 25,-6 33,-40 32,-41 -47,17 -91,28 -104,30 19,-7 59,-23 77,-34 26,-14 33,-50 32,-52 L 194,128 C 216,112 266,71 279,54 294,34 298,0 297,0 245,57 192,95 176,111 c -16,16 -4,33 -5,46 -2,16 -12,28 -20,35 -9,-7 -18,-19 -20,-35 -1,-13 11,-30 -5,-46 C 110,95 56,57 4,0 3,0 7,34 22,54 c 13,17 64,58 86,74 z"
         style="fill:#ffffff;stroke-width:0.0146548"
         id="path5" />
    </g>
  </g>
</svg>
